<svg xmlns="http://www.w3.org/2000/svg" width="34" height="34" fill="none"><path fill="#1ABCFE" d="M16.875 17a5.037 5.037 0 1 1 10.074 0 5.037 5.037 0 0 1-10.074 0z"/><path fill="#0ACF83" d="M6.8 27.074a5.037 5.037 0 0 1 5.037-5.037h5.037v5.037a5.037 5.037 0 1 1-10.074 0z"/><path fill="#FF7262" d="M16.875 1.889v10.074h5.037a5.037 5.037 0 1 0 0-10.074h-5.037z"/><path fill="#F24E1E" d="M6.8 6.926a5.037 5.037 0 0 0 5.037 5.037h5.037V1.889h-5.037A5.037 5.037 0 0 0 6.8 6.926z"/><path fill="#A259FF" d="M6.8 17a5.037 5.037 0 0 0 5.037 5.037h5.037V11.963h-5.037A5.037 5.037 0 0 0 6.8 17z"/></svg>