<svg xmlns="http://www.w3.org/2000/svg" width="30" height="30" fill="none"><path stroke="#E6E6E6" stroke-width="2" d="M3 15.031c0 6.176 4.64 11.265 10.616 11.952.882.102 1.736-.274 2.364-.903a2.017 2.017 0 0 0 0-2.847c-.628-.63-1.14-1.568-.666-2.32C17.206 17.902 27 24.812 27 15.03 27 8.387 21.627 3 15 3S3 8.387 3 15.031z"/><path stroke="#E6E6E6" stroke-width="2" d="M21.6 15.3a.9.9 0 1 0 0-1.8.9.9 0 0 0 0 1.8zm-13.2 0a.9.9 0 1 0 0-1.8.9.9 0 0 0 0 1.8zM13.002 9a.9.9 0 1 1-1.8 0 .9.9 0 0 1 1.8 0zM18.9 9a.9.9 0 1 1-1.8 0 .9.9 0 0 1 1.8 0z"/></svg>