<svg xmlns="http://www.w3.org/2000/svg" width="35" height="34" fill="none"><path fill="#fff" d="m4.967 3.192 16.76-1.234c2.058-.177 2.588-.058 3.881.881l5.35 3.76c.883.647 1.177.823 1.177 1.528v20.625c0 1.292-.47 2.056-2.117 2.173l-19.463 1.176c-1.236.059-1.824-.117-2.471-.94l-3.94-5.113c-.706-.94-1-1.644-1-2.468V5.248c0-1.057.471-1.939 1.823-2.056z"/><path fill="#000008" fill-rule="evenodd" d="M21.727 1.958 4.967 3.192c-1.352.117-1.823.999-1.823 2.056V23.58c0 .824.294 1.528 1 2.469l3.94 5.111c.647.823 1.235 1 2.47.94l19.464-1.175c1.646-.117 2.117-.881 2.117-2.174V8.128c0-.668-.264-.861-1.043-1.43a78.58 78.58 0 0 1-.134-.097l-5.35-3.76c-1.293-.94-1.823-1.059-3.881-.882zm-10.73 5.83c-1.59.108-1.951.133-2.853-.6L5.849 5.365c-.234-.235-.117-.53.47-.588l16.114-1.175c1.352-.118 2.057.353 2.587.764l2.763 1.998c.118.059.412.41.059.41l-16.64 1-.204.014h-.002zM9.142 28.576v-17.51c0-.763.235-1.116.94-1.175l19.111-1.116c.648-.059.942.353.942 1.116v17.392c0 .764-.118 1.411-1.177 1.47L10.671 29.81c-1.058.058-1.528-.294-1.528-1.235zm18.053-16.57c.118.53 0 1.058-.53 1.118l-.881.175v12.926c-.765.412-1.47.647-2.058.647-.942 0-1.178-.294-1.883-1.175l-5.763-9.049v8.755l1.824.412s0 1.057-1.472 1.057l-4.056.235c-.118-.235 0-.822.411-.94l1.059-.293V14.297l-1.47-.117c-.118-.53.176-1.293 1-1.352l4.351-.293 5.998 9.166v-8.11l-1.529-.175c-.117-.647.352-1.117.94-1.175l4.06-.236z" clip-rule="evenodd"/></svg>