<svg xmlns="http://www.w3.org/2000/svg" width="34" height="34" fill="none"><path fill="#4353FF" d="M24.111 1.889a8 8 0 0 1 8 8V24.11a8 8 0 0 1-8 8H9.89a8 8 0 0 1-8-8V9.89a8 8 0 0 1 8-8h14.22z"/><path fill="#fff" d="M22.357 14.552s-1.534 4.806-1.647 5.213c-.045-.4-1.163-9.036-1.163-9.036-2.615 0-4.005 1.859-4.745 3.823 0 0-1.867 4.82-2.018 5.221-.007-.378-.287-5.175-.287-5.175-.159-2.41-2.357-3.869-4.14-3.869l2.146 13.079c2.735-.008 4.208-1.859 4.979-3.831 0 0 1.64-4.254 1.707-4.443.015.182 1.179 8.274 1.179 8.274 2.742 0 4.223-1.73 5.017-3.627l3.845-9.452c-2.712 0-4.14 1.851-4.873 3.823z"/></svg>